<svg height="512pt" viewBox="-115 0 512 512" width="512pt" xmlns="http://www.w3.org/2000/svg"><path d="m183.292969 78.757812-42.105469-35.628906-42.105469 35.628906c0 50.390626-91.582031 83.296876-91.582031 160.425782v201.765625c0 35.097656 28.453125 63.550781 63.550781 63.550781h140.273438c35.097656 0 63.550781-28.453125 63.550781-63.550781v-201.765625c0-77.128906-91.582031-110.035156-91.582031-160.425782zm0 0" fill="#33c0ff"/><path d="m218.398438 191.046875c-5.375-6.640625-13.484376-10.480469-22.027344-10.480469h-110.367188c-8.546875 0-16.65625 3.839844-22.027344 10.480469-11.941406 14.757813-20.484374 30.132813-20.484374 48.136719v201.765625c0 15.21875 12.335937 27.558593 27.558593 27.558593h140.273438c15.21875 0 27.558593-12.339843 27.558593-27.558593v-201.765625c0-18.003906-8.542968-33.378906-20.484374-48.136719zm0 0" fill="#efedee"/><path d="m63.492188 440.949219v-201.765625c0-18.003906 8.542968-33.378906 20.484374-48.136719 5.375-6.640625 13.484376-10.480469 22.027344-10.480469h-20c-8.542968 0-16.652344 3.839844-22.027344 10.480469-11.941406 14.757813-20.484374 30.132813-20.484374 48.136719v201.765625c0 15.21875 12.339843 27.558593 27.558593 27.558593h20c-15.222656 0-27.558593-12.335937-27.558593-27.558593zm0 0" fill="#e0e0e0"/><path d="m183.292969 7.5h-84.210938c-10.820312 0-19.597656 8.773438-19.597656 19.597656v32.0625c0 10.824219 8.777344 19.597656 19.597656 19.597656h84.210938c10.820312 0 19.597656-8.773437 19.597656-19.597656v-32.0625c0-10.824218-8.777344-19.597656-19.597656-19.597656zm0 0" fill="#d28654"/><path d="m109.484375 59.160156v-32.0625c0-10.824218 8.773437-19.597656 19.597656-19.597656h-30c-10.824219 0-19.597656 8.773438-19.597656 19.597656v32.0625c0 10.824219 8.773437 19.597656 19.597656 19.597656h30c-10.824219 0-19.597656-8.773437-19.597656-19.597656zm0 0" fill="#b67248"/><path d="m238.882812 393.1875c4.140626 0 7.5-3.355469 7.5-7.5v-146.503906c0-17.617188-6.832031-33.917969-22.152343-52.855469-6.820313-8.425781-16.972657-13.261719-27.859375-13.261719h-110.367188c-10.886718 0-21.039062 4.832032-27.859375 13.261719-15.320312 18.9375-22.152343 35.238281-22.152343 52.855469v201.765625c0 19.332031 15.730468 35.058593 35.058593 35.058593h140.273438c19.332031 0 35.058593-15.726562 35.058593-35.058593v-25.261719c0-4.140625-3.359374-7.5-7.5-7.5-4.140624 0-7.5 3.359375-7.5 7.5v25.261719c0 11.0625-8.996093 20.058593-20.058593 20.058593h-140.273438c-11.058593 0-20.058593-9-20.058593-20.058593v-201.765625c0-13.945313 5.804687-27.335938 18.8125-43.417969 3.960937-4.894531 9.863281-7.699219 16.199218-7.699219h110.367188c6.335937 0 12.238281 2.804688 16.199218 7.699219 13.007813 16.082031 18.8125 29.472656 18.8125 43.417969v146.507812c0 4.140625 3.355469 7.496094 7.5 7.496094zm0 0"/><path d="m69.878906 315.679688v11.550781c0 4.140625 3.355469 7.5 7.5 7.5 4.140625 0 7.5-3.359375 7.5-7.5v-11.550781c0-4.140626-3.359375-7.5-7.5-7.5-4.144531 0-7.5 3.359374-7.5 7.5zm0 0"/><path d="m204.996094 308.179688c-4.140625 0-7.5 3.359374-7.5 7.5v11.550781c0 4.140625 3.359375 7.5 7.5 7.5s7.5-3.359375 7.5-7.5v-11.550781c0-4.140626-3.359375-7.5-7.5-7.5zm0 0"/><path d="m151.289062 321.488281c-2.445312 2.800781-6.128906 4.40625-10.101562 4.40625s-7.65625-1.605469-10.101562-4.40625c-2.726563-3.117187-7.464844-3.4375-10.582032-.710937-3.121094 2.726562-3.4375 7.464844-.714844 10.582031 5.296876 6.058594 13.097657 9.535156 21.398438 9.535156s16.101562-3.476562 21.394531-9.535156c2.726563-3.117187 2.410157-7.855469-.710937-10.582031-3.117188-2.722656-7.855469-2.40625-10.582032.710937zm0 0"/><path d="m191.378906 85.023438c11.003906-3.445313 19.007813-13.738282 19.007813-25.863282v-32.0625c.003906-14.941406-12.152344-27.097656-27.097657-27.097656h-84.207031c-14.941406 0-27.097656 12.15625-27.097656 27.097656v32.0625c0 12.125 8.007813 22.417969 19.011719 25.867188-3.109375 17.070312-18.417969 33.003906-35.859375 51.144531-4.21875 4.386719-8.578125 8.921875-12.871094 13.59375-2.804687 3.050781-2.605469 7.792969.445313 10.597656 3.050781 2.800781 7.796874 2.601563 10.597656-.449219 4.179687-4.546874 8.480468-9.019531 12.640625-13.347656 18.8125-19.566406 36.683593-38.15625 40.0625-60.308594h70.351562c3.375 22.152344 21.25 40.738282 40.058594 60.300782 25.050781 26.054687 50.953125 52.992187 50.953125 92.625v201.765625c0 30.90625-25.144531 56.050781-56.050781 56.050781h-140.273438c-30.90625 0-56.050781-25.144531-56.050781-56.050781v-201.765625c0-19.644532 6.269531-37.664063 19.730469-56.710938 2.390625-3.382812 1.585937-8.066406-1.796875-10.453125-3.382813-2.390625-8.0625-1.585937-10.453125 1.796875-15.128907 21.40625-22.480469 42.789063-22.480469 65.367188v201.765625c0 39.179687 31.871094 71.050781 71.050781 71.050781h140.273438c39.175781 0 71.050781-31.871094 71.050781-71.050781v-201.765625c0-45.671875-29.296875-76.140625-55.140625-103.019532-17.4375-18.136718-32.746094-34.070312-35.855469-51.140624zm-92.296875-13.765626c-6.671875 0-12.097656-5.425781-12.097656-12.097656v-32.0625c0-6.671875 5.425781-12.097656 12.097656-12.097656h84.207031c6.671876 0 12.097657 5.425781 12.097657 12.097656v32.0625c0 6.671875-5.425781 12.097656-12.097657 12.097656zm0 0"/></svg>