<?xml version="1.0" encoding="iso-8859-1"?>
<!-- Generator: Adobe Illustrator 19.0.0, SVG Export Plug-In . SVG Version: 6.00 Build 0)  -->
<svg version="1.1" id="Capa_1" xmlns="http://www.w3.org/2000/svg" xmlns:xlink="http://www.w3.org/1999/xlink" x="0px" y="0px"
	 viewBox="0 0 512 512" style="enable-background:new 0 0 512 512;" xml:space="preserve">
<g>
	<g transform="translate(1 1)">
		<path style="fill:#F57C00;" d="M135.533,297.667h238.933V485.4c0,9.426-7.641,17.067-17.067,17.067H152.6
			c-9.426,0-17.067-7.641-17.067-17.067V297.667z"/>
		<path style="fill:#FF9801;" d="M135.533,297.667h213.333V485.4c0,9.426-7.641,17.067-17.067,17.067H152.6
			c-9.426,0-17.067-7.641-17.067-17.067V297.667z"/>
		<path style="fill:#D84315;" d="M127,280.6h256c4.713,0,8.533,3.821,8.533,8.533V306.2c0,4.713-3.821,8.533-8.533,8.533H127
			c-4.713,0-8.533-3.82-8.533-8.533v-17.067C118.467,284.421,122.287,280.6,127,280.6z"/>
		<path style="fill:#FF5722;" d="M127,280.6h230.4c4.713,0,8.533,3.821,8.533,8.533V306.2c0,4.713-3.82,8.533-8.533,8.533H127
			c-4.713,0-8.533-3.82-8.533-8.533v-17.067C118.467,284.421,122.287,280.6,127,280.6z"/>
		<rect x="169.667" y="348.867" style="fill:#FFFFFF;" width="59.733" height="51.2"/>
		<path style="fill:#AD1457;" d="M434.2,186.733l-0.683,0.085c-2.59-18.59-13.825-34.857-30.293-43.861
			C384.304,67.939,319.372,13.537,242.2,8.045c4.181-0.341,8.533-0.512,12.8-0.512c47.529-0.006,93.112,18.872,126.72,52.48
			S434.206,139.205,434.2,186.733z"/>
		<path style="fill:#E91E63;" d="M403.224,142.957c-12.674-7.043-27.499-9.17-41.643-5.973
			c-27.377,5.997-46.877,30.257-46.848,58.283c-0.073-32.96-26.774-59.66-59.733-59.733c-4.302,0.014-8.592,0.472-12.8,1.365
			c-27.409,6.022-46.936,30.305-46.933,58.368c-0.073-32.96-26.774-59.66-59.733-59.733c-4.282-0.038-8.552,0.449-12.715,1.451
			c-24.402,5.191-42.932,25.12-46.336,49.835l-0.683-0.085C75.668,92.688,148.384,14.603,242.2,8.045
			C319.372,13.537,384.304,67.939,403.224,142.957z"/>
	</g>
	<g>
		<path d="M170.667,409.6H230.4c4.713,0,8.533-3.82,8.533-8.533v-51.2c0-4.713-3.821-8.533-8.533-8.533h-59.733
			c-4.713,0-8.533,3.82-8.533,8.533v51.2C162.133,405.78,165.954,409.6,170.667,409.6z M179.2,358.4h42.667v34.133H179.2V358.4z"/>
		<path d="M273.067,366.933h68.267c4.713,0,8.533-3.82,8.533-8.533s-3.82-8.533-8.533-8.533h-68.267
			c-4.713,0-8.533,3.821-8.533,8.533S268.354,366.933,273.067,366.933z"/>
		<path d="M273.067,401.067h68.267c4.713,0,8.533-3.82,8.533-8.533s-3.82-8.533-8.533-8.533h-68.267
			c-4.713,0-8.533,3.821-8.533,8.533S268.354,401.067,273.067,401.067z"/>
		<path d="M241.434,449.766c1.6,1.601,3.77,2.5,6.033,2.5c2.263,0,4.433-0.899,6.033-2.5l2.5-2.5v22.067
			c0,4.713,3.82,8.533,8.533,8.533c4.713,0,8.533-3.821,8.533-8.533v-22.067l2.5,2.5c3.341,3.281,8.701,3.256,12.012-0.055
			s3.335-8.671,0.054-12.012l-17.067-17.067c-0.078-0.078-0.184-0.101-0.264-0.176c-0.727-0.704-1.575-1.271-2.503-1.675
			l-0.03-0.007c-0.073-0.03-0.151-0.029-0.224-0.056c-0.867-0.323-1.782-0.501-2.707-0.527c-0.276,0-0.552,0.014-0.826,0.042
			c-0.739,0.044-1.47,0.186-2.171,0.423c-0.269,0.08-0.534,0.175-0.794,0.283c-0.946,0.403-1.81,0.977-2.548,1.693L241.433,437.7
			c-1.6,1.6-2.5,3.77-2.499,6.033C238.934,445.997,239.833,448.167,241.434,449.766z"/>
		<path d="M330.3,420.634c-0.078-0.078-0.184-0.101-0.264-0.176c-0.727-0.704-1.575-1.271-2.503-1.675l-0.03-0.007
			c-0.072-0.03-0.15-0.028-0.223-0.056c-0.868-0.323-1.782-0.501-2.708-0.527c-0.282-0.01-0.547,0.024-0.828,0.042
			c-0.737,0.044-1.465,0.186-2.164,0.421c-0.272,0.081-0.54,0.177-0.802,0.286c-0.944,0.404-1.807,0.977-2.545,1.691L301.167,437.7
			c-3.285,3.34-3.263,8.704,0.05,12.017c3.313,3.313,8.677,3.335,12.017,0.049l2.5-2.5v22.067c0,4.713,3.821,8.533,8.533,8.533
			c4.713,0,8.533-3.821,8.533-8.533v-22.067l2.5,2.5c3.338,3.296,8.711,3.279,12.029-0.038s3.334-8.691,0.038-12.029L330.3,420.634z
			"/>
		<path d="M68.88,190.53c0.081,0.2,0.168,0.385,0.266,0.579c0.189,0.575,0.442,1.126,0.754,1.645l58.409,80.313H128
			c-9.422,0.009-17.057,7.645-17.067,17.067V307.2c0.009,9.422,7.645,17.057,17.067,17.067V486.4
			c0.015,14.132,11.468,25.585,25.6,25.6h204.8c14.132-0.015,25.585-11.468,25.6-25.6V324.267
			c9.422-0.009,17.057-7.645,17.067-17.067v-17.067c-0.009-9.422-7.645-17.057-17.067-17.067h-0.309l58.409-80.313
			c0.142-0.269,0.269-0.546,0.38-0.829c0.333-0.547,0.6-1.132,0.798-1.741c0.152-0.817,0.304-1.634,0.455-2.451
			C443.733,84.051,359.682,0,256,0S68.267,84.051,68.267,187.733c0.044,0.278,0.104,0.554,0.181,0.825
			C68.51,189.231,68.655,189.893,68.88,190.53z M86.503,186.567c4.939-25.901,28.786-43.783,55.034-41.268
			s46.265,24.6,46.196,50.968c0.05,0.407,0.132,0.809,0.243,1.203c0.006,0.418,0.044,0.835,0.115,1.247l22.305,74.35h-60.984
			L86.503,186.567z M204.854,195.192c0.562-27.845,23.295-50.124,51.146-50.124s50.584,22.279,51.146,50.124l-23.362,77.875h-55.567
			L204.854,195.192z M366.933,486.4c-0.006,4.71-3.823,8.527-8.533,8.533H153.6c-4.71-0.006-8.527-3.823-8.533-8.533V324.267
			h221.867V486.4z M384.012,307.2H128v-17.067h256L384.012,307.2z M301.603,273.067l22.305-74.35
			c0.071-0.412,0.109-0.829,0.115-1.247c0.112-0.394,0.193-0.796,0.243-1.203c-0.069-26.368,19.949-48.453,46.196-50.968
			c26.248-2.515,50.095,15.367,55.034,41.268l-62.909,86.5H301.603z M256,17.067c78.134,0.102,146.26,53.158,165.495,128.887
			c-15.401-14.145-36.445-20.435-57.083-17.062c-20.638,3.373-38.583,16.036-48.679,34.349C303.72,141.498,280.841,128,256,128
			c-24.841,0-47.72,13.498-59.733,35.242c-10.096-18.313-28.042-30.976-48.679-34.349c-20.638-3.373-41.681,2.916-57.083,17.062
			C109.74,70.224,177.866,17.169,256,17.067z"/>
	</g>
</g>
<g>
</g>
<g>
</g>
<g>
</g>
<g>
</g>
<g>
</g>
<g>
</g>
<g>
</g>
<g>
</g>
<g>
</g>
<g>
</g>
<g>
</g>
<g>
</g>
<g>
</g>
<g>
</g>
<g>
</g>
</svg>
