<svg xmlns="http://www.w3.org/2000/svg" viewBox="0 0 493.595 493.595">
  <path d="M487.077 83.395c-6.435-8.772-16.579-13.751-27.136-13.75-2.73 0-5.488.333-8.216 1.02L25.442 177.971C12.25 181.29 2.356 192.226.363 205.681c-1.989 13.456 4.315 26.787 15.979 33.784l90.143 54.086v118.643c0 4.49 2.559 8.588 6.592 10.561 4.034 1.972 8.84 1.474 12.383-1.284l84.547-65.805 69.455 41.672c5.419 3.252 11.388 4.801 17.284 4.801 11.308 0 22.341-5.699 28.694-16.023l163.162-265.178c7.176-11.66 6.572-26.504-1.525-37.543zm-192.347 276.7L189.042 296.68l107.223-92.395c1.502-1.294 1.854-3.48.834-5.179-1.018-1.699-3.112-2.419-4.96-1.704l-163.321 63.145-79.325-47.597 397.313-100.013L294.73 360.095z"/>
</svg>
