<?xml version="1.0" encoding="iso-8859-1"?>
<!-- Generator: Adobe Illustrator 19.0.0, SVG Export Plug-In . SVG Version: 6.00 Build 0)  -->
<svg version="1.1" id="Capa_1" xmlns="http://www.w3.org/2000/svg" xmlns:xlink="http://www.w3.org/1999/xlink" x="0px" y="0px"
	 viewBox="0 0 512.002 512.002" style="enable-background:new 0 0 512.002 512.002;" xml:space="preserve">
<rect x="58.442" y="185.744" transform="matrix(-0.7071 0.7071 -0.7071 -0.7071 618.0742 256.085)" style="fill:#F89400;" width="395.116" height="140.613"/>
<g>
	<polygon style="fill:#E6E6E6;" points="9.894,402.736 44.406,419.171 46.05,438.892 68.665,443.429 73.99,466.832 93.712,468.476 
		109.325,502.167 147.947,427.388 84.673,364.114 	"/>
	<polygon style="fill:#E6E6E6;" points="502.118,109.373 467.604,92.939 465.961,73.217 443.346,68.68 438.022,45.278 418.3,43.634 
		402.686,9.943 364.065,84.721 427.339,147.996 	"/>
</g>
<path d="M289.985,227.884l-32.303,13.277c0,0,36.231-51.422,36.283-51.494c7.326-10.399-8.911-22.09-16.357-11.525
	c0,0-55.988,79.463-56.059,79.563c-5.6,7.948,2.998,18.703,11.982,15.016l31.728-13.041c0,0-41.317,57.466-41.388,57.565
	c-7.457,10.372,8.67,22.216,16.245,11.681c0,0,61.737-85.87,61.794-85.948C307.646,235.001,299.059,224.156,289.985,227.884z"/>
<circle cx="361.057" cy="148.009" r="10.005"/>
<path d="M506.419,100.341l-29.322-13.963l-1.167-13.991c-0.37-4.441-3.633-8.103-8.003-8.979l-16.264-3.263l-3.887-17.086
	c-0.967-4.252-4.578-7.388-8.924-7.751l-13.923-1.161c0,0-13.151-28.379-13.166-28.411c-3.427-7.395-14.23-7.617-17.966-0.384
	l-32.34,62.614l-8.398-8.398c-3.907-3.906-10.242-3.906-14.149,0l-32.848,32.848c-0.008,0.008-0.017,0.015-0.026,0.023
	c-0.008,0.008-212.8,212.802-212.8,212.802c-0.009,0.009-0.018,0.016-0.027,0.024c-0.009,0.008-33.679,33.682-33.691,33.694
	c-3.784,3.784-3.898,10.25,0,14.149l8.398,8.398c0,0-62.511,32.286-62.614,32.34c-7.206,3.722-7.021,14.441,0.289,17.921
	l29.322,13.963l1.167,13.991c0.37,4.441,3.633,8.103,8.003,8.979l16.264,3.263l3.887,17.086c0.967,4.252,4.578,7.388,8.924,7.751
	l13.923,1.161c0,0,13.146,28.368,13.166,28.411c3.356,7.241,14.299,7.486,17.966,0.384l32.34-62.614c0,0,8.389,8.389,8.398,8.398
	c3.767,3.767,10.281,3.867,14.149,0c0,0,278.918-278.917,279.392-279.391c3.799-3.799,3.773-10.376,0.001-14.149l-8.398-8.398
	c0,0,62.568-32.316,62.614-32.34C513.814,114.593,513.815,103.863,506.419,100.341z M109.811,479.423l-7.022-15.154
	c-1.513-3.263-4.661-5.465-8.246-5.764l-12.423-1.035l-3.699-16.259c-0.874-3.843-3.923-6.814-7.788-7.589l-15.238-3.057
	l-1.018-12.224c-0.295-3.549-2.454-6.672-5.669-8.202l-16.308-7.767l50.368-26.015l52.935,52.935L109.811,479.423z M412.549,184.795
	c0,0-15.924-15.925-15.959-15.96c-3.841-3.841-10.314-3.813-14.146,0c-3.902,3.902-3.902,10.255,0,14.156l15.954,15.954
	l-198.68,198.679c0,0-15.911-15.911-15.954-15.954c-3.806-3.806-10.362-3.784-14.146,0c-3.902,3.902-3.902,10.245,0,14.147
	l15.953,15.953l-19.545,19.545l-85.283-85.282l19.545-19.545c0,0,12.708,12.707,12.733,12.733c3.841,3.84,10.322,3.825,14.146,0
	c3.902-3.902,3.902-10.245,0-14.146l-12.732-12.732l198.681-198.68c0,0,12.714,12.713,12.732,12.732
	c3.848,3.848,10.31,3.858,14.145,0c3.818-3.839,3.821-10.328,0-14.146l-12.729-12.735l18.722-18.722l85.283,85.282L412.549,184.795z
	 M429.244,135.751l-52.935-52.935l25.891-50.13l7.022,15.154c1.513,3.263,4.661,5.464,8.246,5.764l12.423,1.035l3.699,16.259
	c0.874,3.843,3.923,6.814,7.788,7.589l15.238,3.057l1.018,12.224c0.295,3.549,2.454,6.672,5.669,8.202l16.308,7.767L429.244,135.751
	z"/>
<circle cx="147.96" cy="360.105" r="10.005"/>
<g>
</g>
<g>
</g>
<g>
</g>
<g>
</g>
<g>
</g>
<g>
</g>
<g>
</g>
<g>
</g>
<g>
</g>
<g>
</g>
<g>
</g>
<g>
</g>
<g>
</g>
<g>
</g>
<g>
</g>
</svg>
