<svg xmlns="http://www.w3.org/2000/svg" viewBox="0 0 512 512">
  <circle cx="256" cy="256" r="256" fill="#ffca28"/>
  <path d="M461.216 370.784l-40.32-40.352c-3.84-3.872-9.472-5.44-14.816-4.32-5.344 1.216-9.728 5.056-11.552 10.208L379.2 379.2l-42.848 15.328c-5.152 1.856-8.992 6.208-10.208 11.552-1.184 5.344.448 10.944 4.32 14.816l40.352 40.32C382.72 473.152 399.2 480 416 480s33.28-6.848 45.216-18.784c12.16-12.16 18.88-28.224 18.88-45.216s-6.72-33.056-18.88-45.216z" fill="#f44336"/>
  <g fill="#6d4c41">
    <path d="M256 448c-85.6 0-161.536-57.44-184.672-139.648-2.4-8.544 2.56-17.344 11.072-19.744 8.48-2.368 17.344 2.56 19.744 11.072C121.376 368.16 184.672 416 256 416s134.592-47.84 153.888-116.352c2.4-8.512 11.104-13.504 19.744-11.072 8.512 2.4 13.44 11.264 11.072 19.744C417.536 390.56 341.6 448 256 448zM400 208c-8.832 0-16-7.168-16-16 0-17.632-14.336-32-32-32s-32 14.368-32 32c0 8.832-7.168 16-16 16s-16-7.168-16-16c0-35.296 28.704-64 64-64s64 28.704 64 64c0 8.832-7.168 16-16 16zM208 208c-8.832 0-16-7.168-16-16 0-17.632-14.368-32-32-32s-32 14.368-32 32c0 8.832-7.168 16-16 16s-16-7.168-16-16c0-35.296 28.704-64 64-64s64 28.704 64 64c0 8.832-7.168 16-16 16z"/>
  </g>
</svg>
