<svg xmlns="http://www.w3.org/2000/svg" width="1400" height="1400">
  <path fill="none" pointer-events="none" d="M0 0h1400v1400H0z"/>
  <switch>
    <g>
      <path d="M857.199982 1274.099976a166.399994 38 0 0 1-166.399994 38 166.399994 38 0 0 1-166.399994-38 166.399994 38 0 0 1 166.399994-38 166.399994 38 0 0 1 166.399994 38z" fill="#D8B4D5"/>
      <path fill="#FFF" d="M414.7 428.9v-.7c0-37.9-30.7-68.6-68.6-68.6h-6.4v-.5c0-28-22.7-50.8-50.8-50.8h-3.2c-28 0-50.8 22.7-50.8 50.8v.5h-.6c-33.1 0-60 26.9-60 60v9.3h-29.6c-13.7 0-24.8 11.1-24.8 24.8v.5c0 13.7 11.1 24.8 24.8 24.8h328.2c13.7 0 24.8-11.1 24.8-24.8v-.5c0-13.7-11.1-24.8-24.8-24.8h-58.2z"/>
    </g>
  </switch>
</svg>
