<svg xmlns="http://www.w3.org/2000/svg" width="1000.17706299" height="848.84954834">
  <path fill="none" pointer-events="none" d="M0 0h1000.17706299v848.84954834H0z"/>
  <switch transform="translate(1.59292005 1.59292041)">
    <g>
      <path fill="#F9C88F" d="M144.43538672 493.94158069c-2.1-2.1-3.9-3.9-4.3-4.4-7.2-8.4-11.6-17.3-15.7-27.4 0 0 29.1-11.6 28.6-31.7-.4-16.4-14.1-31.7-30.7-32.2-1.6-.1-3.3.4-4.5 1.5-3 2.8-1 6.7 1.8 8.5 2.3 1.4 5 2 7.3 3.2 5 2.6 8.1 8 8.5 13.6.4 5.6-1.6 11.2-5.1 15.6-5.1 6.6-13.5 10.8-21.9 10.3-8.4-.6-16.4-6.1-19.3-14-2.9-7.9-.2-17.6 6.7-22.4 3.6-2.5 8.2-3.6 11-7.4 1.2-1.6 1.8-3.7 1.2-5.6-1.4-5.1-8.2-5.1-12.9-3.1-8.6 3.7-15.5 11.2-18.5 20.1-3 8.9-2 19 2.6 27.2-15.1-13.4-23.9-33.7-23.4-53.8.1-3.2.4-6.5-.7-9.6-1.1-3-4-5.7-7.2-5.4-2.4.3-4.3 2.3-5.3 4.5-.9 2.2-.9 4.7-.9 7.2.6 19.6 8.1 39 20.9 53.8-13.3-11.8-23.4-27-29.3-43.7-1.5-4.2-7.7-3.9-8.5.5v.1c-.7 3.7-.2 7.5.7 11.1 4.2 18.2 16.7 34.3 33.3 42.9-14.9-6.5-28-17.2-37.4-30.4-2.6-3.6-8.2-1.3-7.5 3.1.6 3.8 2.2 7.6 4.1 10.9 7.5 13.2 19.1 24 32.8 30.6 13.9 6.7 29.8 9.1 42.2 18.2 17.8 12.9 25.8 37.3 45.6 46.8 2.2-11.1 7.2-21.7 14.6-30.4-.1.2-5-4.5-8.8-8.2z"/>
      <path fill="#692A7C" d="M138.93538672 535.24158069c-.5 0-.9-.1-1.3-.3-11.7-5.6-19.4-16-26.9-26-5.7-7.7-11.7-15.6-19.2-21-7.2-5.3-15.7-8.2-24.7-11.2-5.7-1.9-11.5-4-17.1-6.6-14.2-6.8-26.3-18.1-34.1-31.8-1.6-2.8-3.7-7.2-4.4-12-.3-2.2.2-4.2 1.6-5.8 1.4-1.6 3.5-2.6 5.6-2.6 2.3 0 4.5 1.1 5.9 3.1 1.4 2 2.9 3.9 4.5 5.8-2.6-5-4.6-10.3-5.8-15.8-.8-3.4-1.5-7.8-.7-12.3v-.2c.7-3.5 3.7-5.9 7.3-5.9 3.3 0 6.1 2 7.2 5.1 1.7 4.7 3.7 9.4 6 13.8-2.2-7.4-3.4-15-3.7-22.8-.1-2.6-.1-5.5 1.1-8.4 1.4-3.6 4.4-6 7.7-6.4 4.4-.5 8.8 2.7 10.4 7.4 1.1 3.2 1 6.5.9 9.4v1.3c-.4 14.8 4.4 29.5 13.2 41.4-.6-5.3-.1-10.7 1.6-15.7 3.3-9.7 10.8-17.9 20.2-21.9 2.3-1 4.8-1.5 7.1-1.5 5.1 0 8.8 2.5 9.9 6.6.8 2.8.1 5.8-1.7 8.3-2.3 3.1-5.4 4.7-8.1 6.1-1.3.7-2.5 1.3-3.6 2.1-5.6 3.9-8.1 12.1-5.6 18.8 2.4 6.6 9.3 11.5 16.6 12 7.2.5 14.6-3.1 19.3-9.1 3.2-4.1 4.8-9 4.4-13.5-.4-4.8-3.1-9.1-6.9-11.1-.9-.4-1.8-.8-2.9-1.2-1.5-.6-3.1-1.2-4.7-2.2-2.7-1.7-4.5-4.5-4.7-7.2-.2-2.3.7-4.5 2.5-6.1 1.7-1.6 4.1-2.4 6.7-2.3 17.8.6 33.2 16.7 33.7 35.3.5 18.3-20 29.8-27.7 33.4 4.3 10.2 8.5 17.2 14 23.8.3.4 2 2.1 4.1 4.2 4.4 4.4 6.8 6.4 7.6 7.1.5.1.9.3 1.3.7 1.3 1.1 1.5 3 .4 4.3-7 8.3-11.8 18.3-13.9 28.9-.2.9-.8 1.7-1.6 2.2-.5-.3-1-.2-1.5-.2zm-120.5-111.3c-.3 0-.7.2-.9.4-.2.2-.3.5-.2.9.6 3.9 2.3 7.5 3.7 9.9 7.2 12.6 18.4 23 31.5 29.3 5.2 2.5 10.9 4.5 16.4 6.4 9 3.1 18.3 6.3 26.3 12.1 8.3 6 14.5 14.3 20.5 22.4 6.5 8.7 12.7 17 21.2 22.2 2.3-9.1 6.5-17.6 12.2-25-1.5-1.3-3.7-3.3-6.8-6.4-2-2-3.9-4-4.5-4.6-8.1-9.5-12.7-19.6-16.2-28.2-.3-.8-.3-1.6 0-2.4.3-.8.9-1.3 1.7-1.6.3-.1 27.1-11 26.7-28.8-.4-15.1-13.3-28.8-27.7-29.2h-.1c-.9 0-1.7.3-2.2.7-.5.4-.5.8-.5 1.1.1.8.9 1.9 1.9 2.6 1 .6 2.3 1.1 3.6 1.6 1.2.4 2.3.9 3.5 1.5 5.7 3 9.6 9.2 10.2 16.1.5 6.1-1.6 12.3-5.7 17.7-5.8 7.6-15.4 12-24.5 11.4-9.9-.7-18.7-7.1-22-16-3.5-9.3-.1-20.5 7.9-26 1.4-1 2.9-1.7 4.3-2.5 2.4-1.3 4.6-2.4 6-4.3.7-1 1-2.1.7-3-.4-1.4-1.7-2.1-4-2.1-1.5 0-3.2.4-4.7 1-7.8 3.3-14.1 10.2-16.8 18.2-2.7 8.1-1.8 17.3 2.4 24.7.7 1.3.4 3-.7 3.9-1.2.9-2.9.9-4-.1-15.8-14.1-24.9-35.1-24.4-56.2v-1.3c.1-2.6.2-5.1-.6-7.2-.7-2-2.4-3.5-3.9-3.3-1.1.1-2.2 1.2-2.8 2.6-.7 1.8-.7 4-.7 5.9.6 19.1 7.7 37.5 20.2 51.9 1.1 1.2 1 3.1-.2 4.2s-3 1.2-4.2.1c-13.6-12.1-24.1-27.7-30.1-45-.3-.8-1-1-1.3-1-.4 0-1.1.1-1.3 1-.5 2.8-.3 5.8.6 9.9 4 17.4 15.8 32.7 31.7 40.9 1.5.8 2.1 2.6 1.4 4.1-.7 1.5-2.5 2.2-4 1.5-15.5-6.7-28.8-17.6-38.7-31.5-.3-.3-.6-.5-.9-.5z"/>
      <path fill="#A05EA6" d="M102.33538672 536.14158069c42.2 34.8 101.9 45.5 154.7 31.1 37.5-10.2 70.4-33.4 96.4-62 13.4-14.7 25.1-30.9 35-48.2 9.1-15.7 14.3-34.1 24.4-49 11.1-16.3 26.9-30.7 46.3-34.6-5.9-7.2-5.6-17.3-6.5-26.6-.9-9.2-4.5-19.8-13.3-22.5-4.2-1.3-8.7-.5-12.9.9-36.2 11.6-53.6 43.5-67.3 76.1-9.9 23.7-17.5 49.8-31.7 71.4-20.5 31.2-60.6 46.9-97.8 49.1-37.3 2.3-76.8-16.1-93.3-49.6-11.6 21.4-22.8 42.7-34 63.9z"/>
      <path fill="#934F9F" d="M404.63538672 386.34158069c-42.1 67.8-79.1 145.8-162.2 164.3-47.7 10.1-92.8-8.8-126.5-40.1-4.5 8.6-9.1 17.1-13.6 25.7 42.2 34.8 101.9 45.5 154.7 31.1 37.5-10.2 70.4-33.4 96.4-62 13.4-14.7 25.1-30.9 35-48.2 9.1-15.7 14.3-34.1 24.4-49 11.1-16.3 26.9-30.7 46.3-34.6-5.4-6.7-5.6-15.9-6.4-24.5-19.8 6.6-37.6 19.2-48.1 37.3z"/>
      <path fill="#FDD304" d="M150.03538672 492.24158069l-25.7 59c12.5 7.1 26 12.5 39.9 16.2l19.1-53c-12.6-5-24.1-12.5-33.3-22.2z"/>
      <path fill="#692A7C" d="M210.13538672 576.54158069c-41.1 0-80.1-13.5-109.8-38-1.1-.9-1.4-2.5-.8-3.8l33.7-63.7c.5-1 1.6-1.7 2.8-1.6 1.2 0 2.2.7 2.7 1.7 14.1 28.8 48 48.1 84.3 48.1 2 0 4-.1 6-.2 32.2-2 74.3-15.6 95.4-47.8 10-15.2 16.8-33 23.3-50.3 2.6-6.8 5.3-13.9 8.1-20.7 14-33.4 32.1-66 69.2-77.8 5.9-1.9 10.6-2.1 14.7-.9 8.6 2.6 14.2 11.8 15.5 25.2.1 1.5.3 2.9.4 4.4.6 7.8 1.2 15.2 5.5 20.5.7.8.9 2 .5 3s-1.2 1.8-2.3 2c-16.2 3.2-31.9 15-44.3 33.3-5.5 8.1-9.6 17.6-13.7 26.8-3.2 7.4-6.5 15-10.6 22-10.2 17.7-22.1 34.1-35.4 48.7-28.6 31.5-62.4 53.2-97.8 62.9-15.1 4-31.2 6.2-47.4 6.2zm-103.9-41.2c28.4 22.6 65.2 35 104 35 15.7 0 31.1-2.1 46-6.1 34.3-9.4 67.1-30.5 94.9-61.1 12.9-14.2 24.6-30.3 34.6-47.6 3.9-6.7 7.1-14.2 10.3-21.4 4.1-9.4 8.4-19.2 14.2-27.8 8.8-13 23.4-29.1 43.9-34.8-3.2-6.1-3.7-13.1-4.3-20-.1-1.4-.2-2.9-.4-4.3-.5-5.1-2.5-17.2-11.2-19.9-2.9-.9-6.4-.6-11 .9-32.8 10.4-49.9 37.3-65.4 74.3-2.8 6.7-5.5 13.7-8 20.5-6.7 17.6-13.6 35.7-23.9 51.5-19.1 29-56.5 47.9-100.2 50.5-2.1.1-4.3.2-6.4.2-36.4 0-70.6-18.4-87-46.4l-30.1 56.5z"/>
      <path fill="#F9C88F" d="M858.53538672 493.94158069c2.1-2.1 3.9-3.9 4.3-4.4 7.2-8.4 11.6-17.3 15.7-27.4 0 0-29.1-11.6-28.6-31.7.4-16.4 14.1-31.7 30.7-32.2 1.6-.1 3.3.4 4.5 1.5 3 2.8 1 6.7-1.8 8.5-2.3 1.4-5 2-7.3 3.2-5 2.6-8.1 8-8.5 13.6-.4 5.6 1.6 11.2 5.1 15.6 5.1 6.6 13.5 10.8 21.9 10.3 8.4-.6 16.4-6.1 19.3-14 2.9-7.9.2-17.6-6.7-22.4-3.6-2.5-8.2-3.6-11-7.4-1.2-1.6-1.8-3.7-1.2-5.6 1.4-5.1 8.2-5.1 12.9-3.1 8.6 3.7 15.5 11.2 18.5 20.1s2 19-2.6 27.2c15.1-13.4 23.9-33.7 23.4-53.8-.1-3.2-.4-6.5.7-9.6s4-5.7 7.2-5.4c2.4.3 4.3 2.3 5.3 4.5.9 2.2.9 4.7.9 7.2-.6 19.6-8.1 39-20.9 53.8 13.3-11.8 23.4-27 29.3-43.7 1.5-4.2 7.7-3.9 8.5.5v.1c.7 3.7.2 7.5-.7 11.1-4.2 18.2-16.7 34.3-33.3 42.9 14.9-6.5 28-17.2 37.4-30.4 2.6-3.6 8.2-1.3 7.5 3.1-.6 3.8-2.2 7.6-4.1 10.9-7.5 13.2-19.1 24-32.8 30.6-13.9 6.7-29.8 9.1-42.2 18.2-17.8 12.9-25.8 37.3-45.6 46.8-2.2-11.1-7.2-21.7-14.6-30.4.1.2 5-4.5 8.8-8.2z"/>
      <path fill="#692A7C" d="M863.93538672 535.24158069c-.5 0-.9-.1-1.4-.3-.9-.4-1.5-1.2-1.6-2.2-2.1-10.7-6.9-20.7-13.9-28.9-1.1-1.3-.9-3.2.4-4.3.4-.3.8-.6 1.3-.7.9-.6 3.2-2.6 7.6-7.1 2.2-2.2 3.8-3.9 4.1-4.2 5.6-6.5 9.8-13.6 14-23.8-7.7-3.7-28.2-15.1-27.7-33.4.5-18.5 15.9-34.7 33.7-35.3 2.5-.1 5 .8 6.7 2.3 1.8 1.7 2.7 3.8 2.5 6.1-.2 2.8-2.1 5.5-4.7 7.2-1.6 1-3.2 1.6-4.7 2.2-1 .4-2 .8-2.9 1.2-3.8 2-6.5 6.3-6.9 11.1-.3 4.5 1.3 9.4 4.4 13.5 4.6 6 12.1 9.5 19.3 9.1 7.4-.5 14.2-5.4 16.6-12 2.5-6.7 0-14.9-5.6-18.8-1.1-.7-2.3-1.4-3.6-2.1-2.7-1.4-5.8-3-8.1-6.1-1.9-2.5-2.5-5.5-1.7-8.3 1.1-4.1 4.8-6.6 9.9-6.6 2.4 0 4.9.5 7.2 1.5 9.4 4 17 12.2 20.2 21.9 1.7 5 2.2 10.5 1.6 15.7 8.7-11.9 13.5-26.6 13.2-41.4v-1.3c-.1-2.9-.2-6.2.9-9.4 1.7-4.7 6-7.9 10.4-7.4 3.3.4 6.3 2.9 7.7 6.4 1.2 2.9 1.2 5.8 1.1 8.4-.2 7.8-1.5 15.4-3.7 22.8 2.3-4.4 4.3-9 6-13.8 1.1-3.1 3.9-5.1 7.2-5.1 3.6 0 6.6 2.5 7.3 6v.1c.9 4.6.1 9-.7 12.4-1.3 5.5-3.2 10.8-5.8 15.8 1.6-1.9 3.1-3.8 4.5-5.8s3.5-3.1 5.9-3.1c2.1 0 4.2 1 5.6 2.6 1.4 1.6 1.9 3.7 1.6 5.8-.7 4.8-2.8 9.2-4.4 12-7.8 13.7-19.9 25-34.1 31.8-5.5 2.7-11.4 4.7-17.1 6.6-9 3.1-17.4 6-24.7 11.2-7.5 5.5-13.5 13.4-19.2 21-7.5 10-15.2 20.4-26.9 26-.6.6-1 .7-1.5.7zm-10-32.7c5.7 7.4 9.8 15.9 12.2 25 8.5-5.2 14.7-13.5 21.2-22.2 6-8 12.2-16.3 20.5-22.4 8-5.8 17.3-9 26.3-12.1 5.5-1.9 11.2-3.8 16.4-6.4 13.1-6.3 24.3-16.7 31.5-29.3 1.4-2.4 3.1-6 3.7-9.9.1-.4 0-.7-.2-.9-.2-.3-.6-.4-.9-.4-.3 0-.6.2-.9.5-9.9 13.9-23.2 24.8-38.7 31.5-1.5.7-3.3 0-4-1.5-.7-1.5-.1-3.3 1.4-4.1 15.8-8.2 27.7-23.5 31.7-40.9.9-4.1 1.1-7.2.6-9.8v-.1c-.2-.9-.9-1-1.3-1s-1.1.1-1.3 1c-6.1 17.3-16.5 32.9-30.1 45-1.2 1.1-3.1 1-4.2-.1-1.2-1.1-1.2-3-.2-4.2 12.5-14.4 19.6-32.9 20.2-51.9.1-1.9.1-4.1-.7-5.9-.6-1.4-1.7-2.5-2.8-2.6-1.5-.2-3.2 1.3-3.9 3.3-.7 2.1-.7 4.6-.6 7.2v1.3c.5 21.1-8.6 42.2-24.4 56.2-1.1 1-2.8 1-4 .1-1.2-.9-1.5-2.6-.7-3.9 4.2-7.4 5.1-16.6 2.4-24.7-2.7-8.1-9-14.9-16.8-18.2-1.5-.6-3.2-1-4.7-1-2.2 0-3.6.7-3.9 2.1-.2.9 0 2 .7 3 1.4 1.9 3.5 3 6 4.3 1.4.7 2.9 1.5 4.3 2.5 7.9 5.5 11.3 16.7 7.9 26-3.3 8.9-12.1 15.3-22 16-9.2.6-18.7-3.9-24.5-11.4-4.1-5.4-6.2-11.6-5.7-17.7.5-6.9 4.4-13.1 10.2-16.1 1.2-.6 2.4-1.1 3.5-1.5 1.3-.5 2.6-1 3.6-1.6 1-.7 1.8-1.7 1.9-2.6 0-.3 0-.6-.5-1.1-.5-.5-1.3-.7-2.2-.7h-.1c-14.4.5-27.3 14.1-27.7 29.2-.4 17.8 26.4 28.7 26.7 28.8.8.3 1.4.9 1.7 1.6.3.8.3 1.6 0 2.4-3.5 8.6-8.1 18.7-16.2 28.2-.5.6-2.4 2.6-4.5 4.6-3.3 3-5.4 5.1-6.9 6.4z"/>
      <path fill="#A05EA6" d="M901.63538672 536.14158069c-42.2 34.8-101.9 45.5-154.7 31.1-37.5-10.2-70.4-33.4-96.4-62-13.4-14.7-25.1-30.9-35-48.2-9.1-15.7-14.3-34.1-24.4-49-11.1-16.3-26.9-30.7-46.3-34.6 5.9-7.2 5.6-17.3 6.5-26.6.9-9.2 4.5-19.8 13.3-22.5 4.2-1.3 8.7-.5 12.9.9 36.2 11.6 53.6 43.5 67.3 76.1 9.9 23.7 17.5 49.8 31.7 71.4 20.5 31.2 60.6 46.9 97.8 49.1 37.3 2.3 76.8-16.1 93.3-49.6 11.5 21.4 22.8 42.7 34 63.9z"/>
      <path fill="#934F9F" d="M800.93538672 552.64158069c-56.5 9.2-109.9-16.4-141.7-64.7-32.1-49.5-58.5-104-108.4-131.9-.6 6.4-1.8 12.6-5.8 17.5 19.4 3.8 35.2 18.2 46.3 34.6 10.1 14.8 15.3 33.2 24.4 49 9.9 17.2 21.6 33.5 35 48.2 26 28.6 58.8 51.7 96.4 62 52.7 14.4 112.5 3.7 154.7-31.1-4.5-8.5-9-17-13.5-25.4-24.2 21.1-52.9 36.3-87.4 41.8z"/>
      <path fill="#FDD304" d="M880.13538672 551.04158069l-29.7-55.2c-9.3 8.7-20.6 15.4-32.9 19.9l20.4 52.3c14.7-3.8 29-9.5 42.2-17z"/>
      <path fill="#692A7C" d="M793.83538672 576.54158069c-16.2 0-32.2-2.1-47.6-6.3-35.4-9.7-69.2-31.4-97.8-62.9-13.2-14.6-25.1-31-35.4-48.7-4.1-7-7.4-14.6-10.6-22-4-9.2-8.2-18.7-13.7-26.8-12.4-18.3-28.1-30.1-44.3-33.3-1.1-.2-1.9-1-2.3-2-.4-1-.2-2.2.5-3 4.3-5.3 4.9-12.7 5.5-20.5.1-1.5.2-3 .4-4.4 1.3-13.4 6.9-22.6 15.5-25.2 4.1-1.3 8.8-1 14.7.9 37.1 11.8 55.2 44.4 69.2 77.8 2.8 6.8 5.5 13.8 8.1 20.7 6.6 17.2 13.3 35.1 23.3 50.3 21.2 32.2 63.2 45.8 95.4 47.8 2 .1 4 .2 6 .2 36.3 0 70.2-19.3 84.3-48.1.5-1 1.6-1.7 2.7-1.7 1.2-.1 2.2.6 2.8 1.6l33.7 63.7c.7 1.3.4 2.9-.8 3.8-29.5 24.6-68.5 38.1-109.6 38.1zm-243.8-204.9c20.5 5.7 35 21.9 43.9 34.8 5.8 8.6 10.1 18.3 14.2 27.8 3.1 7.2 6.4 14.6 10.3 21.4 10 17.4 21.6 33.4 34.6 47.6 27.8 30.6 60.6 51.7 94.9 61.1 14.8 4 30.3 6.1 46 6.1 38.8 0 75.6-12.4 104-35l-29.9-56.4c-16.5 27.9-50.7 46.4-87 46.4-2.1 0-4.3-.1-6.4-.2-43.7-2.7-81.2-21.6-100.2-50.5-10.4-15.8-17.3-33.9-23.9-51.5-2.6-6.8-5.2-13.8-8-20.5-15.6-37.1-32.6-63.9-65.4-74.3-4.6-1.5-8.2-1.7-11-.9-8.6 2.6-10.7 14.8-11.2 19.9-.1 1.4-.2 2.8-.4 4.3-.8 6.7-1.3 13.8-4.5 19.9z"/>
      <path d="M410.23539872 346.84159269h184.300003v285.799988h-184.300003v-285.799988z" fill="#A05EA6"/>
      <path d="M508.33537472 346.84159269h86.199997v285.799988h-86.199997v-285.799988z" fill="#934F9F"/>
      <path d="M591.83535972 449.74155669a87.699997 93.599998 0 0 1-87.699997 93.599998 87.699997 93.599998 0 0 1-87.699997-93.599998 87.699997 93.599998 0 0 1 87.699997-93.599999 87.699997 93.599998 0 0 1 87.699997 93.599999z" fill="#692A7C"/>
      <path fill="#692A7C" d="M594.53538672 635.64158069h-184.3c-1.7 0-3.1-1.4-3.1-3.1v-285.7c0-1.7 1.4-3.1 3.1-3.1h184.3c1.7 0 3.1 1.4 3.1 3.1v285.8c0 1.7-1.4 3-3.1 3zm-181.2-6.1h178.2v-279.6h-178.2v279.6z"/>
      <path fill="#A05EA6" d="M733.63538672 589.24158069c-.3-15.7-3.8-31.9-12.2-43.7-14.2-19.8-38.9-22.9-59.6-16.2-20.7 6.7-39 21.5-58.3 33-27.6 16.5-57.9 26.4-88.5 29.2h-19c-30.6-2.7-60.9-12.7-88.5-29.2-19.3-11.5-37.6-26.2-58.3-33-20.7-6.7-45.5-3.6-59.6 16.2-8.5 11.8-12 28-12.2 43.7-.3 15.7 2.5 31.3 5.2 46.6 1.3 7.5 2.7 15 4 22.5 4.6 25.8 15.7 49.9 32.3 70.2l44.8 54.6c1.6-8.3 7.2-14.7 13.5-18.2s13.3-4.7 20.1-5.9c26.9-4.4 53.8-8.9 80.7-13.3.1 0 .2 0 .3-.1 18.1-3 36.5-3 54.6 0h.3c26.9 4.4 53.8 8.9 80.7 13.3 6.9 1.1 13.8 2.3 20.1 5.9 6.3 3.6 11.9 10 13.5 18.2l44.8-54.6c16.6-20.2 27.7-44.4 32.3-70.2 1.3-7.5 2.7-15 4-22.5 2.6-15.2 5.3-30.8 5-46.5z"/>
      <path fill="#692A7C" d="M316.83538672 570.04158069c-5.2 5.1-6 13.1-6.2 20.4-.8 30.2 3.6 60.8 14.6 88.9 3.6 9.2 7.9 18.2 14.6 25.4 6.7 7.2 15.9 12.5 25.8 12.6 9.8.1 19.9-5.9 22.9-15.3 6.6 17.4 18.4 34.6 36.3 39.8 16 4.7 34-1.7 45.6-13.7s17.3-28.8 18.4-45.5c-36.1-21.3-69.5-47.2-99.2-76.9-13.5-13.5-26.7-28.2-43.9-36.5-9.2-4.4-21.6-6.4-28.9.8zM696.03538672 570.04158069c5.2 5.1 6 13.1 6.2 20.4.8 30.2-3.6 60.8-14.6 88.9-3.6 9.2-7.9 18.2-14.6 25.4-6.7 7.2-15.9 12.5-25.8 12.6-9.8.1-19.9-5.9-22.9-15.3-6.6 17.4-18.4 34.6-36.3 39.8-16 4.7-34-1.7-45.6-13.7-11.6-12-17.3-28.8-18.4-45.5 36.1-21.3 69.5-47.2 99.2-76.9 13.5-13.5 26.7-28.2 43.9-36.5 9.2-4.4 21.5-6.4 28.9.8z"/>
      <path fill="#692A7C" d="M647.43538672 786.34158069c-.2 0-.5 0-.8-.1-1.2-.3-2-1.2-2.3-2.4-1.3-6.6-5.8-12.6-12-16.1-5.9-3.3-12.6-4.4-19.1-5.5l-27.4-4.5c-17.8-2.9-35.5-5.8-53.3-8.8h-.3c-17.7-2.9-35.9-2.9-53.6 0l-81 13.3c-6.5 1.1-13.2 2.2-19.1 5.5-6.2 3.5-10.7 9.6-12 16.1-.2 1.2-1.1 2.1-2.3 2.4-1.2.3-2.4-.1-3.1-1l-44.8-54.6c-16.9-20.6-28.3-45.4-32.9-71.6l-4-22.5c-2.7-15.3-5.5-31.1-5.3-47.2.2-12.9 2.6-31.2 12.8-45.4 9.6-13.3 24.6-20.7 42.3-20.7 7 0 14 1.1 20.8 3.4 15.1 4.9 29.1 14 42.5 22.8 5.4 3.5 10.9 7.1 16.4 10.4 27 16.1 57.1 26 87.1 28.7h18.7c29.9-2.7 60-12.6 87.1-28.7 5.5-3.3 11.1-6.9 16.4-10.4 13.5-8.8 27.4-17.9 42.5-22.8 6.9-2.2 13.9-3.4 20.8-3.4 17.7 0 32.7 7.4 42.3 20.7 10.2 14.3 12.6 32.6 12.8 45.4.3 16.1-2.5 31.9-5.3 47.2l-4 22.5c-4.6 26.2-16 51-32.9 71.6l-44.6 54.5c-.6.7-1.5 1.2-2.4 1.2zm-318.1-257.1c-15.6 0-28.9 6.4-37.2 18.1-7.2 10.1-11.4 25-11.7 42-.2 15.5 2.5 31 5.2 46l4 22.5c4.5 25.2 15.4 49 31.6 68.8l41.2 50.2c2.6-6 7.2-11.1 13.2-14.5 6.8-3.9 14.4-5.1 21.1-6.2l81-13.3c18.2-3 37.2-3 55.5 0h.3c17.8 2.9 35.5 5.8 53.3 8.8l27.4 4.5c6.7 1.1 14.3 2.4 21.1 6.2 6 3.4 10.6 8.6 13.2 14.5l41.2-50.2c16.2-19.8 27.2-43.6 31.6-68.8l4-22.5c2.7-15 5.4-30.5 5.2-46-.3-16.9-4.4-31.8-11.7-42-8.4-11.7-21.6-18.1-37.2-18.1-6.3 0-12.7 1-18.9 3.1-14.4 4.7-27.9 13.5-41 22.1-5.4 3.5-11 7.2-16.7 10.6-27.9 16.6-58.9 26.8-89.8 29.6h-19.5c-30.9-2.8-61.9-13-89.8-29.6-5.6-3.4-11.2-7-16.7-10.6-13.1-8.6-26.7-17.5-41-22.1-6.2-2.1-12.6-3.1-18.9-3.1z"/>
      <g>
        <path fill="#F9C88F" d="M428.23538672 257.14158069h-.3c-16.7 0-30.2-13.5-30.2-30.2v-12c0-7.8 6.3-14 14-14h16.5v56.2z"/>
        <path fill="#692A7C" d="M428.23538672 260.24158069h-.3c-18.4 0-33.3-14.9-33.3-33.3v-12c0-9.4 7.7-17.1 17.1-17.1h16.5c1.7 0 3.1 1.4 3.1 3.1v56.2c-.1 1.7-1.4 3.1-3.1 3.1zm-16.6-56.3c-6 0-11 4.9-11 11v12c0 14 10.7 25.6 24.4 27v-50h-13.4z"/>
        <g>
          <path fill="#F9C88F" d="M576.53538672 257.14158069h.3c16.7 0 30.2-13.5 30.2-30.2v-12c0-7.8-6.3-14-14-14h-16.5v56.2z"/>
          <path fill="#692A7C" d="M576.83538672 260.24158069h-.3c-1.7 0-3.1-1.4-3.1-3.1v-56.3c0-1.7 1.4-3.1 3.1-3.1h16.5c9.4 0 17.1 7.7 17.1 17.1v12c.1 18.5-14.9 33.4-33.3 33.4zm2.8-56.3v50c13.7-1.4 24.4-13 24.4-27v-12c0-6-4.9-11-11-11h-13.4z"/>
        </g>
      </g>
      <g>
        <path fill="#F9C88F" d="M503.23538672 392.44158069h-1.7c-45.3 0-82-36.7-82-82v-195h165.6v195c0 45.3-36.7 82-81.9 82z"/>
        <path fill="#E5AB6C" d="M585.13538672 115.54158069h-165.5v98.8c56.4-65.8 111.7-68.9 165.6 0v-98.8z"/>
        <path fill="#692A7C" d="M503.23538672 395.54158069h-1.7c-46.9 0-85-38.1-85-85v-195c0-1.7 1.4-3.1 3.1-3.1h165.6c1.7 0 3.1 1.4 3.1 3.1v195c-.1 46.8-38.2 85-85.1 85zm-80.6-276.9v191.9c0 43.5 35.4 78.9 78.9 78.9h1.7c43.5 0 78.9-35.4 78.9-78.9v-191.9h-159.5z"/>
      </g>
      <g>
        <path fill="#692A7C" d="M448.93538672 245.54158069c-5.4 0-10.8-1.1-15.7-3.3-1.6-.7-2.3-2.5-1.6-4.1.7-1.6 2.5-2.3 4.1-1.6 7 3.1 15.3 3.6 22.7 1.3 7.4-2.3 13.9-7.3 18-13.8.9-1.4 2.8-1.9 4.2-1 1.4.9 1.9 2.8 1 4.2-4.9 7.8-12.7 13.8-21.4 16.4-3.7 1.3-7.5 1.9-11.3 1.9zM555.93538672 245.44158069c-3.8 0-7.7-.5-11.4-1.6-8.7-2.5-16.5-8.5-21.5-16.5-.9-1.4-.5-3.3 1-4.2 1.4-.9 3.3-.5 4.2 1 4.2 6.7 10.7 11.7 18 13.8 7.5 2.2 16.1 1.7 22.7-1.3 1.5-.7 3.4 0 4.1 1.5.7 1.5 0 3.4-1.5 4.1-4.7 2.1-10.1 3.2-15.6 3.2z"/>
      </g>
      <g>
        <path fill="#C7C5CB" d="M397.63538672 339.34158069v60.8c0 20.7 5 41.1 14.6 59.4l7.2 13.7c16 30.7 47.8 49.9 82.4 49.9h1.1c34.6 0 66.4-19.2 82.4-49.9l7.2-13.7c9.6-18.3 14.6-38.7 14.6-59.4v-60.8c0-27.5-22.3-49.8-49.8-49.8h-109.9c-27.5 0-49.8 22.3-49.8 49.8z"/>
        <path fill="#E0E0E2" d="M408.43538672 367.64158069v47.1c0 16 4.5 31.8 13.1 46l6.4 10.6c14.4 23.8 42.9 38.7 73.9 38.7h1c31.1 0 59.5-14.9 73.9-38.7l6.4-10.6c8.6-14.2 13.1-30 13.1-46v-47.1c0-21.3-20-38.6-44.7-38.6h-98.6c-24.5 0-44.5 17.3-44.5 38.6z"/>
        <path fill="#F9C88F" d="M516.23538672 316.54158069c-1.7-1.1-3.5-2.1-5.3-3.1h-18.7c-1.8 1-3.6 2.1-5.3 3.1-6.6 4.1-11.4 11.3-19.2 11.6 1.3 4.8 6.6 7.4 11.5 7.6 4.9.1 9.6-1.7 14.3-2.9 5.1-1.3 10.7-1.4 15.8 0 4.8 1.2 9.5 3.1 14.4 3 4.9-.1 10.3-2.8 11.5-7.6-7.6-.4-12.4-7.5-19-11.7z"/>
        <path fill="#692A7C" d="M479.73538672 338.74158069h-.5c-5.7-.1-12.6-3.2-14.4-9.8l-1-3.6 3.8-.1c4.2-.1 7.5-2.9 11.3-6.2 2-1.7 4.1-3.5 6.4-4.9 2.1-1.3 3.8-2.3 5.4-3.2l.7-.4h20.2l.7.4c1.6.9 3.3 1.9 5.4 3.2 2.3 1.5 4.4 3.2 6.4 4.9 3.8 3.2 7.1 6 11.3 6.2l3.8.1-1 3.6c-1.7 6.6-8.7 9.7-14.4 9.8h-.5c-4.1 0-7.9-1.1-11.6-2.2-1.1-.3-2.1-.6-3.2-.9-4.6-1.2-9.6-1.2-14.3 0l-3.3.9c-3.4 1.1-7.1 2.2-11.2 2.2zm-7.1-8.5c1.8 1.5 4.4 2.4 6.8 2.4h.3c3.2 0 6.3-.9 9.6-1.9 1.2-.3 2.3-.7 3.5-1 5.7-1.5 11.8-1.5 17.3 0l3.3.9c3.5 1 6.7 1.9 10 1.9h.3c2.3 0 5-.9 6.8-2.4-4-1.4-7.2-4.1-10.3-6.7-1.9-1.6-3.7-3.2-5.7-4.4-1.7-1.1-3.1-1.9-4.5-2.7h-17c-1.3.7-2.7 1.6-4.5 2.7-2 1.2-3.8 2.8-5.7 4.4-3 2.8-6.2 5.5-10.2 6.8z"/>
        <g>
          <path fill="#692A7C" d="M502.93538672 526.24158069h-1.1c-35.9 0-68.5-19.8-85.2-51.6l-7.2-13.7c-9.8-18.7-14.9-39.7-14.9-60.8v-60.8c0-29.2 23.7-52.9 52.9-52.9h109.9c29.2 0 52.9 23.7 52.9 52.9v60.8c0 21.1-5.2 42.1-14.9 60.8l-7.2 13.7c-16.7 31.8-49.3 51.6-85.2 51.6zm-55.5-233.6c-25.8 0-46.7 21-46.7 46.7v60.8c0 20.1 4.9 40.2 14.2 58l7.2 13.7c15.6 29.8 46.1 48.3 79.7 48.3h1.1c33.6 0 64.1-18.5 79.7-48.3l7.2-13.7c9.3-17.8 14.2-37.9 14.2-58v-60.8c0-25.8-21-46.7-46.7-46.7h-109.9z"/>
        </g>
      </g>
      <g>
        <path fill="#E0E0E2" d="M476.33538672 287.74158069c8.3-2 17.5-2.7 23.1 5.1 5.4 7.5 2.6 17.4-3.2 23.7-10.1 11.1-26.6 15.5-41.2 12-14.6-3.5-27-14.2-33.7-27.6-6.7-13.4-7.9-29.2-4.6-43.9 4.6 11.3 13.3 20.9 24.1 26.5 7.5 3.9 15.9 5.9 24.4 6 3.8.1 7.5-.8 11.1-1.8z"/>
        <path fill="#692A7C" d="M465.13538672 332.84158069c-3.6 0-7.2-.4-10.7-1.2-15-3.6-28.4-14.5-35.7-29.2-6.8-13.5-8.5-29.8-4.9-45.9.3-1.3 1.4-2.3 2.7-2.4 1.3-.1 2.6.7 3.1 1.9 4.3 10.6 12.6 19.7 22.7 25 7 3.7 14.9 5.6 22.9 5.6 3.1 0 6.3-.8 9.7-1.6l.6-.2c3.9-1 7.2-1.4 10.2-1.4 7 0 12.4 2.6 16.1 7.7 6.6 9.1 2.9 20.7-3.4 27.6-8 8.9-20.2 14.1-33.3 14.1zm-46.7-65.9c-1 11.6.9 23 5.8 32.7 6.6 13.1 18.4 22.8 31.6 26 3 .7 6.1 1.1 9.3 1.1 11.2 0 22-4.5 28.9-12.2 4.6-5.1 7.5-13.5 3-19.9-2.5-3.5-6.1-5.1-11.1-5.1-2.5 0-5.4.4-8.8 1.3l-.6.2c-3.6.9-7.3 1.8-11.1 1.8-9 0-17.9-2.2-25.8-6.3-8.6-4.6-16-11.5-21.2-19.6z"/>
        <g>
          <path fill="#E0E0E2" d="M528.43538672 287.74158069c-8.3-2-17.5-2.7-23.1 5.1-5.4 7.5-2.6 17.4 3.2 23.7 10.1 11.1 26.6 15.5 41.2 12 14.6-3.5 27-14.2 33.7-27.6 6.7-13.4 7.9-29.2 4.6-43.9-4.6 11.3-13.3 20.9-24.1 26.5-7.5 3.9-15.9 5.9-24.4 6-3.8.1-7.5-.8-11.1-1.8z"/>
          <path fill="#692A7C" d="M539.53538672 332.84158069c-13.1 0-25.2-5.2-33.4-14.2-6.3-6.9-10-18.5-3.4-27.6 3.7-5.1 9.1-7.7 16.1-7.7 3 0 6.4.5 10.2 1.4l.6.2c3.4.8 6.6 1.6 9.6 1.6 8 0 16-1.9 22.9-5.6 10.1-5.3 18.4-14.4 22.7-25 .5-1.2 1.8-2 3.1-1.9 1.3.1 2.5 1.1 2.7 2.4 3.6 16.1 1.9 32.4-4.9 45.9-7.4 14.7-20.7 25.7-35.7 29.2-3.2.9-6.8 1.3-10.5 1.3zm-20.7-43.3c-5.1 0-8.6 1.6-11.1 5.1-4.6 6.4-1.7 14.8 3 19.9 6.9 7.6 17.7 12.2 28.9 12.2 3.2 0 6.3-.4 9.3-1.1 13.3-3.1 25.1-12.8 31.6-26 4.9-9.7 6.8-21.1 5.8-32.7-5.2 8.2-12.6 15.1-21.1 19.5-7.9 4.1-16.8 6.3-25.8 6.3-3.9 0-7.6-.9-11.1-1.8l-.6-.2c-3.5-.8-6.4-1.2-8.9-1.2z"/>
        </g>
      </g>
      <g>
        <path fill="#F9C88F" d="M540.73538672 269.64158069c1 4.2.1 8.9-2.5 12.4s-6.7 5.8-11.1 6.1c-.6 5.8-3.5 11.4-8 15.2-4.4 3.8-11 5.9-16.8 5.8-5.8.2-12.4-1.9-16.8-5.8-4.4-3.8-7.3-9.4-8-15.2-4.4-.3-8.5-2.6-11.1-6.1-2.6-3.5-3.5-8.2-2.5-12.4"/>
        <path fill="#692A7C" d="M503.03538672 312.34158069h-.7c-6.8.2-14-2.3-18.9-6.5-4.4-3.8-7.5-9.1-8.6-14.8-4.3-.9-8.3-3.5-10.9-7-3.1-4.3-4.2-9.9-3-15 .4-1.7 2.1-2.7 3.7-2.3 1.7.4 2.7 2.1 2.3 3.7-.8 3.4-.1 7.1 2 9.9 2.1 2.8 5.4 4.6 8.8 4.9 1.5.1 2.7 1.3 2.8 2.7.6 5.1 3.1 9.9 6.9 13.2 3.7 3.2 9.5 5.2 14.7 5h.2c5.2.2 11-1.8 14.7-5 3.8-3.3 6.4-8.1 6.9-13.2.2-1.5 1.4-2.6 2.8-2.7 3.5-.2 6.8-2.1 8.8-4.9 2.1-2.8 2.8-6.5 2-9.9-.4-1.7.6-3.3 2.3-3.7 1.7-.4 3.3.6 3.7 2.3 1.2 5.1.1 10.7-3 15-2.6 3.6-6.6 6.1-10.9 7-1.2 5.7-4.2 11-8.6 14.8-4.5 4-11.4 6.5-18 6.5z"/>
      </g>
      <g>
        <path fill="#EC4942" d="M517.13538672 16.84158069c38.1 8.4 93.8 25.6 110.2 61 22.9 49.5 3.1 96.2-20.2 129.3-5.7-.4-11.5-3.6-17.2-4-4.8-12.4-14.4-22.4-25.2-30.1s-22.8-13.6-34.4-20c-20-11-40.3-24.3-53.4-43.4-12.1-17.6-18.3-39.3-16.7-60.7.5-7.2 2-14.5 6-20.4 6.1-9 14.9-8.7 24.4-10.4 8.8-1.6 17.7-3.3 26.5-1.3z"/>
        <path fill="#C93635" d="M538.13538672 113.14158069c-18.9-6.9-37.7-4.2-55.9 3.2 6.8 8.1 14.8 15.1 23.5 21.3 15.4-5 32.7-4.3 47.8 3.2 22.8 11.4 35.9 36 36.1 61.5.1.2.2.5.3.7 5.7.4 11.5 3.6 17.2 4-5.4-41.2-30.4-79.4-69-93.9z"/>
        <path fill="#C93635" d="M555.53538672 69.04158069c-31.8-8.7-64.5-2.9-95.5-11.5.4 18.5 6.5 36.7 16.9 51.9 1.2 1.8 2.5 3.4 3.8 5.1 26.8-7.9 50.6-27.6 78.9-29.2 32-1.8 55.8 24.8 77.3 48.1.4-3.7.5-7.5.5-11.4-16.3-28.7-49.1-45.2-81.9-53z"/>
        <path fill="#692A7C" d="M607.13538672 210.14158069h-.2c-3.2-.2-6.3-1.2-9.3-2.1-2.8-.9-5.4-1.7-7.9-1.8-1.2-.1-2.2-.8-2.7-2-4.1-10.5-12.2-20.1-24.1-28.8-8.1-5.8-17.2-10.7-25.9-15.4-2.7-1.5-5.5-2.9-8.2-4.4-19.1-10.5-40.5-24-54.5-44.4-12.8-18.6-18.9-40.8-17.2-62.7.7-9.4 2.8-16.4 6.6-21.9 5.9-8.7 14.1-9.8 22-11 1.5-.2 3-.4 4.5-.7l.6-.1c5.7-1 11.7-2.1 17.7-2.1 3.3 0 6.4.3 9.3 1 61.5 13.5 99.3 34.6 112.3 62.7 10.7 23.1 13.2 47.5 7.4 72.8-4.4 19.6-13.9 39.6-28 59.6-.5.8-1.4 1.3-2.4 1.3zm-15.1-9.9c2.5.4 5 1.2 7.4 1.9 2.2.7 4.2 1.3 6.2 1.6 30.5-43.9 36.9-85.9 18.9-124.7-12-25.9-49.3-46.4-108-59.3-2.5-.5-5.1-.8-8-.8-5.5 0-11.2 1-16.6 2l-.6.1c-1.6.3-3.1.5-4.6.7-7.5 1.1-13.4 1.9-17.8 8.4-3.1 4.6-4.9 10.6-5.5 18.9-1.5 20.4 4.2 41.3 16.2 58.7 13.2 19.3 33.9 32.3 52.4 42.5 2.7 1.5 5.4 2.9 8.1 4.4 8.9 4.8 18.2 9.7 26.6 15.8 12.1 8.9 20.7 18.9 25.3 29.8z"/>
      </g>
      <g>
        <path fill="#EC4942" d="M387.83538672 188.84158069c-18.1-27.9-30.9-62.4-21.2-94.3 7.4-24.2 26.9-43.2 49-55.4 22.1-12.2 47-18.4 71.5-24.5 11.1-2.7 23.5-5.3 33.6.2 9.4 5.2 14.1 16.2 16.2 26.8 5.4 27.6-2.9 57.5-21.8 78.3-15.2 16.8-36.1 27.2-55.2 39.5s-37.8 27.9-44.4 49.7c-12 .4-21.2-10.3-27.7-20.3z"/>
        <path fill="#C93635" d="M534.03538672 31.44158069c-2.2-5.7-5.4-10.8-10-14.4 5.6 31.2-23.4 54.7-50.6 65.4-37 13.3-85.2 22.6-101.6 62.6-.9 2.1-1.7 4.3-2.4 6.4 1.5 4.5 3.3 8.9 5.2 13.2.4-1.4.8-2.8 1.3-4.2 18.5-49.3 76-60.6 121.2-80.1 19.1-8.2 37.4-26.2 36.9-48.9z"/>
        <path fill="#C93635" d="M444.63538672 151.14158069c38.7-23.7 79.6-46.7 93.8-88.2.2-4.9.1-9.8-.5-14.6-2 28.6-26.1 46.6-49.2 59.7-28.7 16.4-59.6 26.7-81.1 54.4-7.1 9.6-12.4 20.8-15.5 32.4 5.4 6.9 12.1 13 20.2 14 .5-22.3 9.6-43.2 32.3-57.7z"/>
        <path fill="#692A7C" d="M414.83538672 212.14158069c-10.5 0-20.1-7.1-29.6-21.7-15.8-24.5-32.4-61.1-21.6-96.8 6.9-22.8 24.9-43.1 50.5-57.2 22.9-12.6 49.1-19.1 72.3-24.8 6.5-1.6 13.4-3.2 20.3-3.2 6 0 11 1.2 15.5 3.6 11.2 6.1 15.8 19.1 17.7 28.9 5.6 28.5-3 59.5-22.5 81-12.1 13.4-27.7 22.8-42.7 31.9-4.3 2.6-8.8 5.3-13.1 8.1-15.2 9.7-36.3 25.3-43.2 48-.4 1.3-1.5 2.1-2.8 2.2h-.8zm91.9-197.5c-6.2 0-12.7 1.5-18.8 3-22.8 5.6-48.6 12-70.8 24.2-24.2 13.3-41.1 32.3-47.6 53.6-10.2 33.5 5.7 68.3 20.8 91.7 7.7 11.9 15.2 18.1 22.9 18.8 8.1-23.4 29.4-39.2 45-49.1 4.3-2.8 8.8-5.5 13.2-8.1 14.7-8.9 29.9-18.1 41.4-30.8 18.2-20.1 26.3-49.1 21-75.7-1.7-8.5-5.6-19.7-14.6-24.6-3.5-2-7.6-3-12.5-3z"/>
      </g>
      <g>
        <path fill="#F9C88F" d="M700.13538672 573.84158069c-2.2-16-16-30.7-32.2-30.5-13.1.2-24.1 9.3-33.9 17.9-62.3 54.6-124.3 109.4-186.2 164.5-17.6 5.9-36.1 9.1-54.6 9.2-14.2.1-31.3-.1-39 11.8-7.3 11.2-1.1 26.3 7 36.9 10.3 13.4 24.8 24.9 41.6 26.5 17 1.6 33.8-7.1 45.5-19.6 9.8-10.4 16.6-23.1 22.4-36.1 42.8-61.5 116.3-72.1 175-107.4 13.8-8.3 27.7-17.1 38.5-29.1s18.1-28.1 15.9-44.1z"/>
        <path fill="#E5AB6C" d="M700.13538672 573.84158069c-.9-6.2-3.5-12.3-7.4-17.3.3 29.8-20.2 55.1-46.9 71.1-62.6 35.9-128.3 64.7-178.7 115-10.3 29.5-33 53.6-60.5 67.8 15.7.1 30.8-8.3 41.6-19.8 9.8-10.4 16.6-23.1 22.4-36.1 42.8-61.5 116.3-72.1 175-107.4 13.8-8.3 27.7-17.1 38.5-29.1 10.9-12.1 18.2-28.2 16-44.2z"/>
        <path fill="#692A7C" d="M407.03538672 813.54158069c-1.5 0-3-.1-4.4-.2-15.7-1.5-31.3-11.4-43.8-27.7-4.2-5.5-17.3-24.8-7.1-40.5 8.4-13 26-13.1 40.2-13.2h1.3c17.9-.1 35.8-3.1 53.1-8.9 62.7-55.8 125.2-111 185.7-164.1 11.1-9.7 22.2-18.5 35.9-18.7h.5c16.6 0 32.3 14.9 34.8 33.1 2.2 15.4-3.9 32.5-16.6 46.6-10.9 12.2-24.8 21-39.2 29.7-19.3 11.6-40.5 20.7-61 29.5-41.6 17.8-84.6 36.3-112.9 76.8-5 11.1-12.1 25.3-22.9 36.7-12.4 13.3-28.3 20.9-43.6 20.9zm261.3-267.1h-.4c-11.6.2-21.7 8.2-31.9 17.1-60.7 53.3-123.3 108.7-186.1 164.6-.3.3-.7.5-1.1.6-18.1 6.1-36.8 9.2-55.6 9.4h-1.3c-13.4.1-28.5.2-35.1 10.4-6.3 9.8-.6 23.6 6.9 33.4 6.6 8.7 20.6 23.5 39.5 25.3 1.3.1 2.6.2 3.8.2 13.6 0 27.9-6.9 39.1-18.8 10.3-10.9 17.1-24.6 21.8-35.3.1-.2.2-.3.3-.5 29.3-42.2 73.2-61 115.7-79.2 20.3-8.7 41.3-17.7 60.2-29.1 14-8.4 27.5-17 37.8-28.5 11.5-12.8 17-28 15.1-41.7-2.1-15.4-15-27.9-28.7-27.9z"/>
        <g>
          <path d="M360.34384269 747.67173939a13.40039188 9.90028952 70.38548693 0 1-4.82742034 15.94622905 13.40039188 9.90028952 70.38548693 0 1-13.82417966-9.29936905 13.40039188 9.90028952 70.38548693 0 1 4.82742-15.94623 13.40039188 9.90028952 70.38548693 0 1 13.82418 9.29937z" fill="#F9C88F"/>
          <path fill="#692A7C" d="M352.93538672 767.04158069c-5.9 0-11.7-4.8-14.2-11.8-1.4-4-1.6-8.2-.5-11.8 1.2-3.9 3.8-6.9 7.2-8.1 1.1-.4 2.3-.6 3.6-.6 5.9 0 11.7 4.8 14.2 11.8 3.1 8.6.1 17.5-6.7 19.9-1.1.4-2.3.6-3.6.6zm-3.9-26.1c-.5 0-1 .1-1.5.3-2.1.7-3 2.8-3.4 4-.7 2.4-.6 5.3.4 8 1.6 4.5 5.1 7.7 8.4 7.7.5 0 1-.1 1.5-.3 3.5-1.2 4.8-6.7 3-12-1.6-4.4-5.1-7.7-8.4-7.7z"/>
        </g>
        <g>
          <path d="M411.5093233 797.94360712a9.5998357 8.79984939 32.8478003 0 1 3.29184085 12.59992054 9.5998357 8.79984939 32.8478003 0 1-12.83808084 2.18583946 9.5998357 8.79984939 32.8478003 0 1-3.29184-12.59992 9.5998357 8.79984939 32.8478003 0 1 12.83808-2.18584z" fill="#F9C88F"/>
          <path fill="#692A7C" d="M407.53538672 817.44158069c-2.5 0-5-.7-7.2-2.2-2.8-1.8-4.8-4.5-5.6-7.7-.9-3.2-.4-6.5 1.4-9.2 2.1-3.3 5.8-5.2 9.9-5.2 2.5 0 5 .7 7.2 2.2 2.8 1.8 4.8 4.5 5.6 7.7.9 3.2.4 6.5-1.4 9.2-2.1 3.2-5.8 5.2-9.9 5.2zm-1.6-18.1c-2 0-3.7.9-4.7 2.4-.8 1.2-1 2.8-.6 4.3.4 1.6 1.5 3.1 3 4.1 1.2.8 2.5 1.2 3.9 1.2 2 0 3.7-.9 4.7-2.4.8-1.2 1-2.8.6-4.3-.4-1.6-1.5-3.1-3-4.1-1.2-.8-2.6-1.2-3.9-1.2z"/>
          <path d="M399.7567153 795.19255133a10.90031877 9.90028952 70.38548693 0 1-5.66667034 13.59122906 10.90031877 9.90028952 70.38548693 0 1-12.98492872-6.9443694 10.90031877 9.90028952 70.38548693 0 1 5.66666906-13.59122966 10.90031877 9.90028952 70.38548693 0 1 12.98493 6.94437z" fill="#F9C88F"/>
          <path fill="#692A7C" d="M391.03538672 812.24158069c-5.6 0-10.8-3.8-12.8-9.5-2.6-7.2.8-15.1 7.5-17.5 1.3-.5 2.7-.7 4.1-.7 5.6 0 10.8 3.8 12.8 9.5 1.2 3.5 1.2 7.2-.2 10.4-1.4 3.4-4 5.9-7.3 7.1-1.3.5-2.7.7-4.1.7zm-1.2-21.5c-.7 0-1.4.1-2 .3-3.5 1.3-5.2 5.6-3.8 9.6 1.2 3.2 4 5.4 7 5.4.7 0 1.4-.1 2-.3 1.7-.6 3-1.9 3.7-3.6.8-1.9.8-4 .1-6-1.1-3.2-3.9-5.4-7-5.4z"/>
          <g>
            <path d="M370.63688641 771.49282245a10.90031877 9.90028952 70.38548693 0 1-5.6666694 13.59122872 10.90031877 9.90028952 70.38548693 0 1-12.98492965-6.94436906 10.90031877 9.90028952 70.38548693 0 1 5.66667-13.59123 10.90031877 9.90028952 70.38548693 0 1 12.98492905 6.94437034z" fill="#F9C88F"/>
            <path fill="#692A7C" d="M361.93538672 788.64158069c-5.6 0-10.8-3.8-12.8-9.5-2.6-7.2.8-15.1 7.5-17.5 1.3-.5 2.7-.7 4.1-.7 5.6 0 10.8 3.8 12.8 9.5 1.2 3.5 1.2 7.2-.2 10.4-1.4 3.4-4 5.9-7.3 7.1-1.3.4-2.7.7-4.1.7zm-1.2-21.6c-.7 0-1.4.1-2 .3-3.5 1.3-5.2 5.6-3.8 9.6 1.2 3.2 4 5.4 7 5.4.7 0 1.4-.1 2-.3 1.7-.6 3-1.9 3.7-3.6.8-1.9.8-4 .1-6-1.1-3.2-3.9-5.4-7-5.4z"/>
          </g>
          <g>
            <path d="M385.34513672 784.38225069a10.90031877 9.90028952 70.38548693 0 1-5.66667 13.59123 10.90031877 9.90028952 70.38548693 0 1-12.98493-6.94437 10.90031877 9.90028952 70.38548693 0 1 5.66667-13.59123 10.90031877 9.90028952 70.38548693 0 1 12.98493 6.94437z" fill="#F9C88F"/>
            <path fill="#692A7C" d="M376.63538672 801.54158069c-5.6 0-10.8-3.8-12.8-9.5-1.2-3.5-1.2-7.2.2-10.4 1.4-3.4 4-5.9 7.3-7.1 1.3-.5 2.7-.7 4.1-.7 5.6 0 10.8 3.8 12.8 9.5 1.2 3.5 1.2 7.2-.2 10.4-1.4 3.4-4 5.9-7.3 7.1-1.3.4-2.7.7-4.1.7zm-1.2-21.6c-.7 0-1.4.1-2 .3-1.7.6-3 1.9-3.7 3.6-.8 1.9-.8 4-.1 6 1.2 3.2 4 5.4 7 5.4.7 0 1.4-.1 2-.3 1.7-.6 3-1.9 3.7-3.6.8-1.9.8-4 .1-6-1.1-3.2-4-5.4-7-5.4z"/>
          </g>
        </g>
      </g>
      <g>
        <path fill="#F9C88F" d="M310.33538672 573.84158069c2.2-16 16-30.7 32.2-30.5 13.1.2 24.1 9.3 33.9 17.9 62.3 54.6 124.3 109.4 186.2 164.5 17.6 5.9 36.1 9.1 54.6 9.2 14.2.1 31.3-.1 39 11.8 7.3 11.2 1.1 26.3-7 36.9-10.3 13.4-24.8 24.9-41.6 26.5-17 1.6-33.8-7.1-45.5-19.6-9.8-10.4-16.6-23.1-22.4-36.1-42.8-61.5-116.3-72.1-175-107.4-13.8-8.3-27.7-17.1-38.5-29.1s-18.1-28.1-15.9-44.1z"/>
        <path fill="#E5AB6C" d="M526.83538672 724.14158069c-48.3-39-102.7-63.7-159.1-91.4-17.5-8.8-43.9-22-56.2-41.3 2.5 9.8 7.9 19 14.7 26.6 10.8 12 24.7 20.8 38.5 29.1 58.6 35.3 132.2 45.9 175 107.4 5.8 13.1 12.6 25.8 22.4 36.1 11.7 12.4 28.5 21.2 45.5 19.6 5.7-.6 11.2-2.3 16.3-4.8-46.7-10.7-64.1-54.3-97.1-81.3z"/>
        <path fill="#692A7C" d="M603.43538672 813.54158069c-15.3 0-31.2-7.6-43.6-20.7-10.8-11.5-17.9-25.6-22.9-36.7-28.3-40.5-71.3-59-112.9-76.8-20.5-8.8-41.7-17.9-61-29.5-14.4-8.7-28.3-17.5-39.2-29.7-12.7-14.2-18.8-31.2-16.6-46.6 2.5-18.3 18.2-33.1 34.8-33.1h.5c13.7.2 24.8 9 35.9 18.7 60.6 53 123.1 108.2 185.7 163.9 17.3 5.7 35.2 8.7 53.1 8.9h1.3c14.2.1 31.9.2 40.2 13.2 10.1 15.7-2.9 34.9-7.1 40.5-12.5 16.3-28.1 26.2-43.8 27.7-1.4.1-2.9.2-4.4.2zm-261.4-267.1c-13.7 0-26.6 12.5-28.7 27.8-1.9 13.6 3.6 28.8 15.1 41.7 10.3 11.5 23.8 20.1 37.8 28.5 19 11.4 39.9 20.4 60.2 29.1 42.5 18.2 86.4 37 115.7 79.2.1.2.2.3.3.5 4.8 10.7 11.6 24.4 21.8 35.3 11.3 11.9 25.5 18.8 39.1 18.8 1.3 0 2.6-.1 3.8-.2 18.9-1.8 32.8-16.7 39.5-25.3 7.5-9.7 13.2-23.6 6.9-33.4-6.6-10.2-21.7-10.3-35.1-10.4h-1.3c-18.8-.1-37.5-3.3-55.6-9.4-.4-.1-.8-.3-1.1-.6-62.8-55.9-125.4-111.2-186.2-164.5-10.2-8.9-20.3-17-31.9-17.1h-.3z"/>
        <g>
          <path d="M650.05692008 747.62007394a13.40039188 9.90028952-70.38548693 0 1 13.82417966-9.29936906 13.40039188 9.90028952-70.38548693 0 1 4.8274194 15.94622872 13.40039188 9.90028952-70.38548693 0 1-13.82417906 9.29937034 13.40039188 9.90028952-70.38548693 0 1-4.82742-15.94623z" fill="#F9C88F"/>
          <path fill="#692A7C" d="M657.43538672 767.04158069c-1.2 0-2.4-.2-3.6-.6-6.7-2.4-9.7-11.3-6.7-19.9 2.5-6.9 8.3-11.8 14.2-11.8 1.2 0 2.4.2 3.6.6 3.4 1.2 6 4.1 7.2 8.1 1.1 3.6.9 7.8-.5 11.8-2.4 7-8.3 11.8-14.2 11.8zm4-26.1c-3.3 0-6.8 3.2-8.4 7.7-1.9 5.3-.5 10.8 3 12 .5.2 1 .3 1.5.3 3.3 0 6.8-3.2 8.4-7.7 1-2.7 1.1-5.6.4-8-.4-1.2-1.3-3.3-3.4-4-.5-.2-1-.3-1.5-.3z"/>
        </g>
        <g>
          <path d="M598.94681029 797.9029341a9.5998357 8.79984939-32.8478003 0 1 12.83808084 2.18583946 9.5998357 8.79984939-32.8478003 0 1-3.29184084 12.59992054 9.5998357 8.79984939-32.8478003 0 1-12.83808-2.18584 9.5998357 8.79984939-32.8478003 0 1 3.29184-12.59992z" fill="#F9C88F"/>
          <path fill="#692A7C" d="M602.93538672 817.44158069c-4.1 0-7.8-2-9.9-5.2-1.7-2.7-2.2-6-1.4-9.2.8-3.1 2.8-5.8 5.6-7.7 2.2-1.4 4.7-2.2 7.2-2.2 4.1 0 7.8 2 9.9 5.2 1.7 2.7 2.2 6 1.4 9.2-.8 3.1-2.8 5.8-5.6 7.7-2.2 1.4-4.7 2.2-7.2 2.2zm1.6-18.1c-1.4 0-2.7.4-3.9 1.2-1.5 1-2.6 2.4-3 4.1-.4 1.5-.2 3.1.6 4.3 1 1.5 2.7 2.4 4.7 2.4 1.4 0 2.7-.4 3.9-1.2 1.5-1 2.6-2.4 3-4.1.4-1.5.2-3.1-.6-4.3-1-1.5-2.7-2.4-4.7-2.4z"/>
          <path d="M610.55859269 795.041062a10.90031877 9.90028952-70.38548693 0 1 12.98492966-6.94436906 10.90031877 9.90028952-70.38548693 0 1 5.66667034 13.59122905 10.90031877 9.90028952-70.38548693 0 1-12.98493 6.94437 10.90031877 9.90028952-70.38548693 0 1-5.66667-13.59123z" fill="#F9C88F"/>
          <path fill="#692A7C" d="M619.43538672 812.24158069c-1.4 0-2.8-.2-4.1-.7-3.3-1.2-5.9-3.7-7.3-7.1-1.4-3.3-1.4-7-.2-10.4 2-5.7 7.2-9.5 12.8-9.5 1.4 0 2.8.2 4.1.7 6.7 2.4 10.1 10.3 7.5 17.5-2 5.7-7.2 9.5-12.8 9.5zm1.2-21.5c-3 0-5.9 2.2-7 5.4-.7 2-.7 4.1.1 6 .7 1.8 2.1 3 3.7 3.6.7.2 1.3.3 2 .3 3 0 5.9-2.2 7-5.4 1.4-4-.3-8.4-3.8-9.6-.7-.2-1.4-.3-2-.3z"/>
          <g>
            <path d="M639.6433222 771.45581169a10.90031877 9.90028952-70.38548693 0 1 12.98492873-6.9443694 10.90031877 9.90028952-70.38548693 0 1 5.66667034 13.59122906 10.90031877 9.90028952-70.38548693 0 1-12.98493 6.94437 10.90031877 9.90028952-70.38548693 0 1-5.66666906-13.59122966z" fill="#F9C88F"/>
            <path fill="#692A7C" d="M648.53538672 788.64158069c-1.4 0-2.8-.2-4.1-.7-3.3-1.2-5.9-3.7-7.3-7.1-1.4-3.3-1.4-7-.2-10.4 2-5.7 7.2-9.5 12.8-9.5 1.4 0 2.8.2 4.1.7 6.7 2.4 10.1 10.3 7.5 17.5-2 5.7-7.2 9.5-12.8 9.5zm1.2-21.6c-3 0-5.9 2.2-7 5.4-.7 2-.7 4.1.1 6 .7 1.8 2.1 3 3.7 3.6.7.2 1.3.3 2 .3 3 0 5.9-2.2 7-5.4 1.4-4-.3-8.4-3.8-9.6-.7-.1-1.4-.3-2-.3z"/>
          </g>
          <g>
            <path d="M625.0114141 784.30806263a10.90031877 9.90028952-70.38548693 0 1 12.98493-6.94437 10.90031877 9.90028952-70.38548693 0 1 5.66666907 13.59122967 10.90031877 9.90028952-70.38548693 0 1-12.98492906 6.94437033 10.90031877 9.90028952-70.38548693 0 1-5.66667-13.59123z" fill="#F9C88F"/>
            <path fill="#692A7C" d="M633.83538672 801.54158069c-1.4 0-2.8-.2-4.1-.7-6.7-2.4-10.1-10.3-7.5-17.5 2-5.7 7.2-9.5 12.8-9.5 1.4 0 2.8.2 4.1.7 3.3 1.2 5.9 3.7 7.3 7.1 1.4 3.3 1.4 7 .2 10.4-2 5.6-7.2 9.5-12.8 9.5zm1.2-21.6c-3 0-5.9 2.2-7 5.4-1.4 4 .3 8.4 3.8 9.6.7.2 1.3.3 2 .3 3 0 5.9-2.2 7-5.4.7-2 .7-4.1-.1-6-.7-1.8-2.1-3-3.7-3.6-.6-.2-1.3-.3-2-.3z"/>
          </g>
        </g>
      </g>
      <g>
        <path fill="#692A7C" d="M392.93538672 199.04158069h-.3c-1.7-.2-2.9-1.7-2.8-3.4 2.3-23.9 18.2-45 48.5-64.4 9.6-6.2 19.9-11.6 29.8-16.8 14.1-7.4 28.6-15.1 41.3-25 8.2-6.4 27.1-23.5 24.5-44-.2-1.7 1-3.2 2.7-3.4 1.7-.2 3.2 1 3.4 2.7 2.1 16.7-7.6 34.8-26.8 49.7-13.1 10.2-27.9 18-42.2 25.6-9.8 5.2-19.9 10.5-29.4 16.6-28.6 18.3-43.5 37.9-45.7 59.8-.1 1.4-1.4 2.6-3 2.6z"/>
      </g>
      <g>
        <path fill="#692A7C" d="M376.13538672 170.54158069c-1.2 0-2.3-.7-2.8-1.8-4.3-9.6-3.6-21.8 1.9-32.5 4.4-8.5 11.5-16.2 21.8-23.6 16-11.4 34.6-18.6 52.5-25.6 18.6-7.2 37.7-14.6 53.6-26.7 7.8-5.9 13.3-11.9 16.7-18.3 4.1-7.6 5.2-16 3-23-.5-1.6.4-3.4 2-3.9s3.4.4 3.9 2c2.7 8.6 1.4 18.7-3.5 27.8-3.9 7.2-9.9 13.8-18.4 20.3-16.5 12.5-36.1 20.1-55.1 27.5-17.6 6.8-35.8 13.9-51.2 24.8-9.5 6.8-16 13.7-19.9 21.4-4.7 9.1-5.3 19.3-1.8 27.2.7 1.6 0 3.4-1.6 4.1-.2.3-.7.3-1.1.3z"/>
      </g>
      <g>
        <path fill="#692A7C" d="M607.53538672 211.84158069c-1.6 0-2.9-1.2-3.1-2.7-4.8-44.1-37.8-84.3-80-97.7-1.6-.5-2.5-2.2-2-3.9.5-1.6 2.2-2.5 3.9-2 44.5 14.1 79.2 56.5 84.3 102.9.2 1.7-1 3.2-2.7 3.4h-.4z"/>
      </g>
      <g>
        <path fill="#692A7C" d="M637.53538672 129.44158069c-1.2 0-2.4-.7-2.9-1.9-15.1-37-59.7-54.9-96.3-59.3-1.7-.2-2.9-1.7-2.7-3.4.2-1.7 1.7-2.9 3.4-2.7 38.4 4.6 85.2 23.6 101.3 63.1.6 1.6-.1 3.4-1.7 4-.3.1-.7.2-1.1.2z"/>
      </g>
    </g>
  </switch>
</svg>
