<?xml version="1.0" standalone="no"?>
<!DOCTYPE svg PUBLIC "-//W3C//DTD SVG 20010904//EN"
 "http://www.w3.org/TR/2001/REC-SVG-20010904/DTD/svg10.dtd">
<svg version="1.0" xmlns="http://www.w3.org/2000/svg"
 width="100.000000pt" height="100.000000pt" viewBox="0 0 100.000000 100.000000"
 preserveAspectRatio="xMidYMid meet">
<metadata>
Created by potrace 1.11, written by Peter Selinger 2001-2013
</metadata>
<g transform="translate(0.000000,100.000000) scale(0.100000,-0.100000)"
fill="#000000" stroke="none">
<path d="M393 810 c-108 -23 -183 -77 -208 -148 -9 -26 -21 -55 -26 -65 -6
-10 -10 -44 -9 -75 0 -31 -2 -70 -5 -87 -4 -19 -1 -37 8 -50 13 -17 13 -22 0
-42 -15 -22 -10 -63 8 -63 5 0 9 -13 9 -30 0 -17 9 -39 20 -50 19 -19 33 -20
310 -20 277 0 291 1 310 20 11 11 20 33 20 50 0 17 4 30 9 30 18 0 23 41 8 63
-13 20 -13 25 0 42 9 13 12 31 8 50 -3 17 -5 56 -5 87 1 31 -3 65 -9 75 -5 10
-17 39 -26 65 -32 93 -136 147 -290 153 -49 2 -109 0 -132 -5z m264 -35 c63
-21 121 -67 139 -111 28 -68 46 -64 -296 -64 -342 0 -324 -4 -296 63 36 87
161 140 316 133 47 -2 108 -12 137 -21z m178 -235 l0 -45 -335 0 -335 0 -3 33
c-6 66 -25 63 340 60 l333 -3 0 -45z m-253 -77 c-87 -20 -71 -28 20 -9 89 19
205 23 220 8 14 -14 13 -61 -1 -75 -15 -15 -585 -23 -623 -8 -29 11 -39 37
-27 69 7 17 16 22 44 22 39 0 106 -30 142 -62 23 -21 73 -19 73 3 0 6 -7 6
-21 -2 -17 -9 -25 -7 -42 9 -12 11 -40 29 -62 41 l-40 21 190 -1 190 -1 -63
-15z m255 -129 c16 -25 16 -27 -2 -40 -26 -19 -52 -17 -75 6 l-20 20 -20 -20
c-11 -11 -29 -20 -40 -20 -11 0 -29 9 -40 20 l-20 20 -20 -20 c-25 -25 -55
-25 -80 0 l-20 20 -20 -20 c-25 -25 -55 -25 -80 0 -20 20 -20 20 -40 0 -11
-11 -29 -20 -40 -20 -11 0 -29 9 -40 20 l-20 20 -20 -20 c-23 -23 -49 -25 -75
-6 -18 13 -18 15 -2 40 l17 26 320 0 320 0 17 -26z m-526 -61 c15 -3 36 0 47
6 14 7 28 7 51 -2 23 -8 38 -9 61 0 22 8 38 8 60 0 22 -8 38 -8 60 0 22 8 38
8 60 0 22 -8 38 -8 59 0 41 15 101 -4 101 -32 0 -44 -10 -45 -310 -45 -300 0
-310 1 -310 45 0 22 52 46 80 37 8 -3 27 -7 41 -9z"/>
<path d="M374 729 c-10 -17 13 -36 27 -22 12 12 4 33 -11 33 -5 0 -12 -5 -16
-11z m26 -9 c0 -5 -4 -10 -10 -10 -5 0 -10 5 -10 10 0 6 5 10 10 10 6 0 10 -4
10 -10z"/>
<path d="M334 679 c-10 -17 13 -36 27 -22 12 12 4 33 -11 33 -5 0 -12 -5 -16
-11z m26 -9 c0 -5 -4 -10 -10 -10 -5 0 -10 5 -10 10 0 6 5 10 10 10 6 0 10 -4
10 -10z"/>
<path d="M414 679 c-10 -17 13 -36 27 -22 12 12 4 33 -11 33 -5 0 -12 -5 -16
-11z m26 -9 c0 -5 -4 -10 -10 -10 -5 0 -10 5 -10 10 0 6 5 10 10 10 6 0 10 -4
10 -10z"/>
<path d="M458 423 c7 -3 16 -2 19 1 4 3 -2 6 -13 5 -11 0 -14 -3 -6 -6z"/>
</g>
</svg>
